<svg width="108" height="108" viewBox="0 0 108 108" xmlns="http://www.w3.org/2000/svg">
  <!-- Background circle -->
  <circle cx="54" cy="54" r="50" fill="#16A085"/>
  
  <!-- Burbuja de chat centrada -->
  <g transform="translate(24, 24) scale(1.4)">
    <path d="M20 26 
             Q20 18 28 18 
             L52 18 
             Q60 18 60 26 
             L60 42 
             Q60 50 52 50 
             L36 50 
             L30 58 
             L30 50 
             Q20 50 20 42 Z" fill="#F4F7F6" stroke="#FFFFFF" stroke-width="1"></path>

    <!-- Surcos de cultivo dentro de la burbuja -->
    <path d="M26 30 C32 28, 40 28, 54 30" fill="none" stroke="#16A085" stroke-width="1.8"></path>
    <path d="M26 36 C32 34, 40 34, 54 36" fill="none" stroke="#16A085" stroke-width="1.8"></path>
    <path d="M26 42 C32 40, 40 40, 54 42" fill="none" stroke="#16A085" stroke-width="1.8"></path>

    <!-- Pequeño rayo -->
    <path d="M50 22 L46 30 L50 30 L46 38" fill="none" stroke="#111827" stroke-width="1.6" stroke-linecap="round" stroke-linejoin="round"></path>
  </g>
</svg>
