<svg id="svg" version="1.1" viewBox="0 0 195.71428571428575 300" width="195.71428571428575" height="300" xmlns="http://www.w3.org/2000/svg"><svg xmlns="http://www.w3.org/2000/svg"><defs><clipPath id="clip-1"><rect x="0" y="0" transform="scale(0.17857,0.17857)" width="1096" height="1680" fill="none"/></clipPath><linearGradient x1="118.16214" y1="125.72018" x2="157.12643" y2="7.52246" gradientUnits="userSpaceOnUse" id="color-1"><stop offset="0" stop-color="#5e8036"/><stop offset="1" stop-color="#8db938"/></linearGradient><linearGradient x1="33.92482" y1="153.7575" x2="124.91" y2="93.73214" gradientUnits="userSpaceOnUse" id="color-2"><stop offset="0" stop-color="#2b482e"/><stop offset="1" stop-color="#5f8535"/></linearGradient><linearGradient x1="85.41429" y1="241.02321" x2="105.84571" y2="203.54286" gradientUnits="userSpaceOnUse" id="color-3"><stop offset="0" stop-color="#a5724c"/><stop offset="1" stop-color="#c69a72"/></linearGradient></defs><g clip-path="url(#clip-1)" fill="none" fill-rule="nonzero" stroke="none" stroke-width="1" stroke-linecap="butt" stroke-linejoin="miter" stroke-miterlimit="10" stroke-dasharray="" stroke-dashoffset="0" font-family="none" font-weight="none" font-size="none" text-anchor="none" style="mix-blend-mode: normal"><path d="M0,0h195.71429v300h-195.71429z" fill="#f9f9f9"/><path d="M169.42268,108.69732c0.39411,0.35893 0.15143,5.35732 0.15554,6.29107c0.05232,5.47679 0.05429,10.95393 0.00589,16.43071l0.01696,45.74036l-0.08161,61.20125l-0.03821,17.27321c-0.03893,10.99643 0.39804,18.12321 -7.77375,26.59821c-9.31446,9.66071 -21.88411,8.04643 -34.04518,8.08214c-10.05446,-0.0125 -20.10893,0.05357 -30.16232,0.19821c-10.13339,0.09643 -20.67571,0.03393 -30.80196,-0.14464c-12.86054,-0.22679 -27.34446,2.25 -37.37696,-7.525c-8.33089,-8.11607 -8.66,-15.37857 -8.63875,-26.2875l-0.00071,-12.54107l-0.08304,-59.26607c-0.00964,-11.86911 0.04304,-23.93607 -0.13125,-35.795c1.97643,2.26482 3.28161,3.53411 5.625,5.47768c1.30161,1.07946 3.69357,2.87089 4.6775,4.07036c0.29929,2.52143 0.17464,6.82464 0.16661,9.42857l-0.02071,15.31304l0.01179,53.15179c0.03196,5.77143 0.24857,10.30893 4.61714,14.63214c5.445,5.38929 13.74536,4.19821 20.82446,4.1625l23.21786,-0.15357l60.77571,0.11429c5.92411,-0.0375 10.63821,-0.32857 15.04625,-4.74107c2.18071,-2.18393 3.57857,-5.525 3.88232,-8.56429c0.49214,-4.92143 0.32321,-10.45714 0.29589,-15.43393l-0.07018,-24.31607c-0.00196,-27.83232 0.21839,-56.09964 -0.10429,-83.89821c1.20589,-1.48911 3.74518,-3.41696 5.23393,-4.78518c1.70518,-1.56714 3.15875,-3.05446 4.77607,-4.71393z" fill="#345131"/><path d="M93.1675,261.88393c5.81268,-0.85 11.21929,3.15893 12.09339,8.96786c0.87411,5.80893 -3.11321,11.23214 -8.91893,12.12857c-5.83875,0.90357 -11.29893,-3.1125 -12.17804,-8.95536c-0.87911,-5.84107 3.15768,-11.28571 9.00357,-12.14107z" fill="#f9f9f9"/><path d="M92.23518,118.12411c-5.93982,-17.31821 -4.80839,-38.06161 3.30893,-54.45554c15.59536,-31.49661 53.55321,-44.40214 85.97196,-48.69923c4.11607,25.89477 3.19286,58.03209 -12.78786,80.03388c-6.99304,9.61911 -16.14929,17.45929 -26.73018,22.88821c-1.09125,0.55446 -4.65804,2.29357 -5.73732,2.56018l0.05357,-0.26179c0.45304,-0.46714 1.67732,-0.88625 2.33625,-1.15839c-0.8975,-1.18929 -0.20196,-1.49411 -0.67214,-2.6525c-0.79661,-1.8675 -1.46625,-3.89571 -2.21357,-5.76518c-1.79946,-4.50089 -5.46286,-6.51286 -9.17321,-9.20661c-0.85696,-0.62214 -2.55429,-3.09107 -3.17393,-3.48071c-1.45161,-0.91286 -5.31304,-5.22982 -6.34179,-5.63768c-0.40393,0.33554 -0.55286,0.45268 -1.00875,0.72232l-0.105,0.06125c2.37821,-4.04464 5.55589,-7.84232 8.36607,-11.55929c5.21518,-6.89839 10.46982,-12.87268 16.40446,-19.12036c3.24286,-3.41375 9.585,-8.92696 11.99,-12.47821c-4.265,1.44429 -8.79036,4.67268 -12.49214,7.30357c-18.71125,13.49875 -33.81911,31.38821 -43.99518,52.09482c-1.13125,2.28768 -3.06786,7.18179 -4.00018,8.81125z" fill="url(#color-1)"/><path d="M9.11471,86.94625c3.79686,0.26714 9.16511,1.42518 13.07993,2.14839c15.40429,2.84554 33.32661,6.55 45.3375,17.25911c12.1875,10.86679 16.30054,25.56107 17.13554,41.30732c-9.87929,-13.26518 -27.39,-26.29893 -42.77875,-32.55536c-0.79286,-0.32232 -2.07143,-0.78625 -2.85982,-0.43893l-0.03946,0.305c0.88571,2.41089 12.65768,10.58929 15.45286,12.98964c8.37679,7.19357 16.71196,14.93875 23.42571,23.74732c1.92821,2.53 3.86446,5.11518 5.61321,7.77196c1.18821,1.80536 5.05054,9.04196 6.12304,9.945c0.26893,0.22643 0.2975,0.22911 0.64411,0.19464c0.50286,-0.65304 0.49911,-4.60857 0.56411,-5.62839c1.39429,-21.90339 9.25036,-43.49643 20.02536,-62.47c1.48411,-2.61339 3.33375,-6.0875 5.12411,-8.44964l0.105,-0.06125c0.45589,-0.26964 0.60482,-0.38679 1.00875,-0.72232c1.02875,0.40786 4.89018,4.72482 6.34179,5.63768c0.61964,0.38964 2.31696,2.85857 3.17393,3.48071c3.71036,2.69375 7.37375,4.70571 9.17321,9.20661c0.74732,1.86946 1.41696,3.89768 2.21357,5.76518c0.47018,1.15839 -0.22536,1.46321 0.67214,2.6525c-0.65893,0.27214 -1.88321,0.69125 -2.33625,1.15839l-0.05357,0.26179c-7.33821,3.38161 -18.11893,4.63643 -24.21357,9.98036c-10.53696,9.23875 -11.98375,28.14286 -12.07018,41.43286c-0.04946,7.61018 0.87875,14.45839 0.37286,22.23875c-5.055,-5.00179 -7.68607,-4.28214 -12.37643,0.3c0.05839,-0.42321 0.10393,-0.85 0.13643,-1.27679c0.40732,-5.62143 -1.1375,-9.66786 -3.35714,-14.72714c-2.30268,-5.24768 -5.17161,-9.94196 -10.02018,-13.22286c-3.37089,-2.28089 -8.32732,-3.315 -12.29464,-4.27571c-14.72125,-3.565 -25.47411,-6.73393 -35.74125,-18.62696c-11.02009,-12.765 -15.10745,-26.93429 -16.99223,-43.40929c-0.41932,-3.66518 -0.84871,-8.28089 -0.58966,-11.91857z" fill="url(#color-2)"/><path d="M120.71536,24.01107l2.81518,-0.07554c-2.24589,1.59893 -4.96982,2.50071 -7.26714,4.09982c-2.54946,1.77464 -6.08625,5.29107 -8.82804,6.37214c-3.36411,1.32661 -24.41268,-0.04768 -30.40054,0.63304c-0.97679,0.11107 -2.53571,0.35768 -3.15375,1.21393c-0.54375,0.75286 -0.59304,1.86732 -0.46,2.75393c0.13464,0.89679 0.56357,1.81679 1.31179,2.36125c0.34482,0.25071 0.72679,0.37482 1.14714,0.42571c3.6775,0.44429 7.63732,0.14821 11.34946,0.16089c4.04839,0.01393 8.76286,0.40107 12.75214,-0.18429c-1.68786,1.54429 -3.11893,2.92089 -4.49339,4.77268c-1.30429,1.75696 -2.38625,3.62589 -3.85036,5.25071c-2.81357,0.11196 -6.31179,-0.04821 -9.19571,-0.04964l-24.49982,-0.10018c-11.05554,-0.01214 -22.90679,-1.65804 -26.64232,11.50179c-0.65179,3.8525 -0.30321,14.04911 -0.41393,18.60982c-3.71232,-1.13268 -6.30839,-1.74929 -10.13054,-2.38625c-0.06696,-0.79661 -0.11643,-1.59446 -0.14804,-2.39321c-0.17929,-4.83107 0.11321,-9.90786 0.04196,-14.74143c-0.19964,-10.78411 -0.56429,-20.26089 7.32518,-28.71821c8.08893,-8.67143 16.40286,-8.93911 27.35589,-9.15696c5.14625,-0.08982 10.29339,-0.13036 15.44054,-0.12179c9.73714,0.03196 19.47429,-0.00518 29.21107,-0.11107c6.79054,-0.00929 13.96286,0.11839 20.73321,-0.11714z" fill="#345131"/><path d="M93.60821,197.33214c1.24214,-0.08571 2.25054,0.21071 3.18268,1.07143c6.17125,5.94643 10.18982,14.93393 11.43304,23.25893c1.35339,9.06071 -1.82196,22 -12.72929,23.17143c-13.81375,0.225 -16.98286,-16.57321 -14.02821,-27.01786c1.79786,-6.35536 6.27929,-16.94821 12.14179,-20.48393z" fill="url(#color-3)"/></g></svg></svg>