<?xml version="1.0" encoding="UTF-8" standalone="no"?>
<!DOCTYPE svg PUBLIC "-//W3C//DTD SVG 1.1//EN"
 "http://www.w3.org/Graphics/SVG/1.1/DTD/svg11.dtd">
<!-- Generated by graphviz version 2.43.0 (0)
 -->
<!-- Title: AgroChat Pages: 1 -->
<svg width="1582pt" height="598pt"
 viewBox="0.00 0.00 1581.87 598.00" xmlns="http://www.w3.org/2000/svg" xmlns:xlink="http://www.w3.org/1999/xlink">
<g id="graph0" class="graph" transform="scale(1 1) rotate(0) translate(4 594)">
<title>AgroChat</title>
<polygon fill="white" stroke="transparent" points="-4,4 -4,-594 1577.87,-594 1577.87,4 -4,4"/>
<g id="clust1" class="cluster">
<title>cluster_app</title>
<polygon fill="none" stroke="#cccccc" points="118.99,-98 118.99,-391 769.43,-391 769.43,-98 118.99,-98"/>
<text text-anchor="middle" x="444.21" y="-375.8" font-family="Helvetica,sans-Serif" font-size="14.00">Android App</text>
</g>
<g id="clust2" class="cluster">
<title>cluster_native</title>
<polygon fill="none" stroke="#cccccc" points="810.87,-399 810.87,-582 1565.87,-582 1565.87,-399 810.87,-399"/>
<text text-anchor="middle" x="1188.37" y="-566.8" font-family="Helvetica,sans-Serif" font-size="14.00">Capa Nativa</text>
</g>
<g id="clust3" class="cluster">
<title>cluster_assets</title>
<polygon fill="none" stroke="#cccccc" points="826.37,-96 826.37,-391 1074.37,-391 1074.37,-96 826.37,-96"/>
<text text-anchor="middle" x="950.37" y="-375.8" font-family="Helvetica,sans-Serif" font-size="14.00">Assets</text>
</g>
<!-- MA -->
<g id="node1" class="node">
<title>MA</title>
<path fill="none" stroke="black" d="M312.99,-250C312.99,-250 138.99,-250 138.99,-250 132.99,-250 126.99,-244 126.99,-238 126.99,-238 126.99,-226 126.99,-226 126.99,-220 132.99,-214 138.99,-214 138.99,-214 312.99,-214 312.99,-214 318.99,-214 324.99,-220 324.99,-226 324.99,-226 324.99,-238 324.99,-238 324.99,-244 318.99,-250 312.99,-250"/>
<text text-anchor="middle" x="225.99" y="-228.3" font-family="Helvetica,sans-Serif" font-size="14.00">MainActivity / UI Compose</text>
</g>
<!-- VH -->
<g id="node2" class="node">
<title>VH</title>
<path fill="none" stroke="black" d="M503.99,-306C503.99,-306 391.99,-306 391.99,-306 385.99,-306 379.99,-300 379.99,-294 379.99,-294 379.99,-280 379.99,-280 379.99,-274 385.99,-268 391.99,-268 391.99,-268 503.99,-268 503.99,-268 509.99,-268 515.99,-274 515.99,-280 515.99,-280 515.99,-294 515.99,-294 515.99,-300 509.99,-306 503.99,-306"/>
<text text-anchor="middle" x="447.99" y="-290.8" font-family="Helvetica,sans-Serif" font-size="14.00">VoiceHelper</text>
<text text-anchor="middle" x="447.99" y="-275.8" font-family="Helvetica,sans-Serif" font-size="14.00">(Vosk STT + TTS)</text>
</g>
<!-- MA&#45;&gt;VH -->
<g id="edge2" class="edge">
<title>MA&#45;&gt;VH</title>
<path fill="none" stroke="black" d="M299.03,-250.01C321.73,-255.68 346.88,-261.97 369.92,-267.73"/>
<polygon fill="black" stroke="black" points="369.09,-271.13 379.64,-270.16 370.79,-264.34 369.09,-271.13"/>
</g>
<!-- SH -->
<g id="node3" class="node">
<title>SH</title>
<path fill="none" stroke="black" d="M522.99,-250C522.99,-250 372.99,-250 372.99,-250 366.99,-250 360.99,-244 360.99,-238 360.99,-238 360.99,-226 360.99,-226 360.99,-220 366.99,-214 372.99,-214 372.99,-214 522.99,-214 522.99,-214 528.99,-214 534.99,-220 534.99,-226 534.99,-226 534.99,-238 534.99,-238 534.99,-244 528.99,-250 522.99,-250"/>
<text text-anchor="middle" x="447.99" y="-228.3" font-family="Helvetica,sans-Serif" font-size="14.00">SemanticSearchHelper</text>
</g>
<!-- MA&#45;&gt;SH -->
<g id="edge4" class="edge">
<title>MA&#45;&gt;SH</title>
<path fill="none" stroke="black" d="M325.09,-232C333.56,-232 342.13,-232 350.59,-232"/>
<polygon fill="black" stroke="black" points="350.84,-235.5 360.84,-232 350.84,-228.5 350.84,-235.5"/>
</g>
<!-- LH -->
<g id="node4" class="node">
<title>LH</title>
<path fill="none" stroke="black" d="M490.49,-196C490.49,-196 405.49,-196 405.49,-196 399.49,-196 393.49,-190 393.49,-184 393.49,-184 393.49,-172 393.49,-172 393.49,-166 399.49,-160 405.49,-160 405.49,-160 490.49,-160 490.49,-160 496.49,-160 502.49,-166 502.49,-172 502.49,-172 502.49,-184 502.49,-184 502.49,-190 496.49,-196 490.49,-196"/>
<text text-anchor="middle" x="447.99" y="-174.3" font-family="Helvetica,sans-Serif" font-size="14.00">LlamaService</text>
</g>
<!-- MA&#45;&gt;LH -->
<g id="edge11" class="edge">
<title>MA&#45;&gt;LH</title>
<path fill="none" stroke="black" d="M300.55,-213.94C327.47,-207.34 357.67,-199.93 383.62,-193.56"/>
<polygon fill="black" stroke="black" points="384.46,-196.95 393.34,-191.17 382.79,-190.15 384.46,-196.95"/>
</g>
<!-- GH -->
<g id="node5" class="node">
<title>GH</title>
<path fill="none" stroke="black" d="M486.49,-142C486.49,-142 409.49,-142 409.49,-142 403.49,-142 397.49,-136 397.49,-130 397.49,-130 397.49,-118 397.49,-118 397.49,-112 403.49,-106 409.49,-106 409.49,-106 486.49,-106 486.49,-106 492.49,-106 498.49,-112 498.49,-118 498.49,-118 498.49,-130 498.49,-130 498.49,-136 492.49,-142 486.49,-142"/>
<text text-anchor="middle" x="447.99" y="-120.3" font-family="Helvetica,sans-Serif" font-size="14.00">GroqService</text>
</g>
<!-- MA&#45;&gt;GH -->
<g id="edge15" class="edge">
<title>MA&#45;&gt;GH</title>
<path fill="none" stroke="black" d="M252.67,-213.92C278.92,-196.06 321.35,-168.89 360.99,-151 369.37,-147.22 378.43,-143.75 387.43,-140.65"/>
<polygon fill="black" stroke="black" points="388.73,-143.91 397.12,-137.44 386.53,-137.26 388.73,-143.91"/>
</g>
<!-- CH -->
<g id="node6" class="node">
<title>CH</title>
<path fill="none" stroke="black" d="M493.99,-360C493.99,-360 401.99,-360 401.99,-360 395.99,-360 389.99,-354 389.99,-348 389.99,-348 389.99,-336 389.99,-336 389.99,-330 395.99,-324 401.99,-324 401.99,-324 493.99,-324 493.99,-324 499.99,-324 505.99,-330 505.99,-336 505.99,-336 505.99,-348 505.99,-348 505.99,-354 499.99,-360 493.99,-360"/>
<text text-anchor="middle" x="447.99" y="-338.3" font-family="Helvetica,sans-Serif" font-size="14.00">CameraHelper</text>
</g>
<!-- MA&#45;&gt;CH -->
<g id="edge17" class="edge">
<title>MA&#45;&gt;CH</title>
<path fill="none" stroke="black" d="M252.11,-250.23C278.26,-268.56 320.93,-296.66 360.99,-315 367.11,-317.8 373.6,-320.42 380.16,-322.85"/>
<polygon fill="black" stroke="black" points="379.2,-326.22 389.8,-326.25 381.54,-319.62 379.2,-326.22"/>
</g>
<!-- VOSK -->
<g id="node18" class="node">
<title>VOSK</title>
<path fill="none" stroke="black" d="M1005.37,-304C1005.37,-304 895.37,-304 895.37,-304 889.37,-304 883.37,-298 883.37,-292 883.37,-292 883.37,-280 883.37,-280 883.37,-274 889.37,-268 895.37,-268 895.37,-268 1005.37,-268 1005.37,-268 1011.37,-268 1017.37,-274 1017.37,-280 1017.37,-280 1017.37,-292 1017.37,-292 1017.37,-298 1011.37,-304 1005.37,-304"/>
<text text-anchor="middle" x="950.37" y="-282.3" font-family="Helvetica,sans-Serif" font-size="14.00">model&#45;es&#45;small/*</text>
</g>
<!-- VH&#45;&gt;VOSK -->
<g id="edge3" class="edge">
<title>VH&#45;&gt;VOSK</title>
<path fill="none" stroke="black" d="M516.22,-286.87C609.02,-286.68 775.92,-286.35 873.22,-286.15"/>
<polygon fill="black" stroke="black" points="873.29,-289.65 883.28,-286.13 873.27,-282.65 873.29,-289.65"/>
</g>
<!-- MSK -->
<g id="node8" class="node">
<title>MSK</title>
<path fill="none" stroke="black" d="M1069.87,-497C1069.87,-497 830.87,-497 830.87,-497 824.87,-497 818.87,-491 818.87,-485 818.87,-485 818.87,-473 818.87,-473 818.87,-467 824.87,-461 830.87,-461 830.87,-461 1069.87,-461 1069.87,-461 1075.87,-461 1081.87,-467 1081.87,-473 1081.87,-473 1081.87,-485 1081.87,-485 1081.87,-491 1075.87,-497 1069.87,-497"/>
<text text-anchor="middle" x="950.37" y="-475.3" font-family="Helvetica,sans-Serif" font-size="14.00">MindSporeHelper (Kotlin JNI bridge)</text>
</g>
<!-- SH&#45;&gt;MSK -->
<g id="edge10" class="edge">
<title>SH&#45;&gt;MSK</title>
<path fill="none" stroke="black" d="M524.69,-250.16C528.44,-252.73 531.92,-255.66 534.99,-259 584.61,-312.98 517.48,-369.87 570.99,-420 633.58,-478.63 729.15,-493.15 808.58,-493.14"/>
<polygon fill="black" stroke="black" points="808.71,-496.64 818.68,-493.06 808.66,-489.64 808.71,-496.64"/>
</g>
<!-- TOK -->
<g id="node11" class="node">
<title>TOK</title>
<path fill="none" stroke="black" d="M1033.87,-551C1033.87,-551 866.87,-551 866.87,-551 860.87,-551 854.87,-545 854.87,-539 854.87,-539 854.87,-527 854.87,-527 854.87,-521 860.87,-515 866.87,-515 866.87,-515 1033.87,-515 1033.87,-515 1039.87,-515 1045.87,-521 1045.87,-527 1045.87,-527 1045.87,-539 1045.87,-539 1045.87,-545 1039.87,-551 1033.87,-551"/>
<text text-anchor="middle" x="950.37" y="-529.3" font-family="Helvetica,sans-Serif" font-size="14.00">UniversalNativeTokenizer</text>
</g>
<!-- SH&#45;&gt;TOK -->
<g id="edge8" class="edge">
<title>SH&#45;&gt;TOK</title>
<path fill="none" stroke="black" d="M525.27,-250.25C528.83,-252.8 532.11,-255.7 534.99,-259 597.56,-330.66 503.59,-402.87 570.99,-470 641.61,-540.34 758.99,-549.96 844.31,-545.83"/>
<polygon fill="black" stroke="black" points="844.76,-549.31 854.55,-545.26 844.37,-542.32 844.76,-549.31"/>
</g>
<!-- KB -->
<g id="node15" class="node">
<title>KB</title>
<path fill="none" stroke="black" d="M1054.37,-250C1054.37,-250 846.37,-250 846.37,-250 840.37,-250 834.37,-244 834.37,-238 834.37,-238 834.37,-226 834.37,-226 834.37,-220 840.37,-214 846.37,-214 846.37,-214 1054.37,-214 1054.37,-214 1060.37,-214 1066.37,-220 1066.37,-226 1066.37,-226 1066.37,-238 1066.37,-238 1066.37,-244 1060.37,-250 1054.37,-250"/>
<text text-anchor="middle" x="950.37" y="-228.3" font-family="Helvetica,sans-Serif" font-size="14.00">agrochat_knowledge_base.json</text>
</g>
<!-- SH&#45;&gt;KB -->
<g id="edge5" class="edge">
<title>SH&#45;&gt;KB</title>
<path fill="none" stroke="black" d="M535.01,-232C614.6,-232 733.87,-232 824.04,-232"/>
<polygon fill="black" stroke="black" points="824.05,-235.5 834.05,-232 824.05,-228.5 824.05,-235.5"/>
</g>
<!-- EMB -->
<g id="node16" class="node">
<title>EMB</title>
<path fill="none" stroke="black" d="M1017.37,-196C1017.37,-196 883.37,-196 883.37,-196 877.37,-196 871.37,-190 871.37,-184 871.37,-184 871.37,-172 871.37,-172 871.37,-166 877.37,-160 883.37,-160 883.37,-160 1017.37,-160 1017.37,-160 1023.37,-160 1029.37,-166 1029.37,-172 1029.37,-172 1029.37,-184 1029.37,-184 1029.37,-190 1023.37,-196 1017.37,-196"/>
<text text-anchor="middle" x="950.37" y="-174.3" font-family="Helvetica,sans-Serif" font-size="14.00">kb_embeddings.npy</text>
</g>
<!-- SH&#45;&gt;EMB -->
<g id="edge6" class="edge">
<title>SH&#45;&gt;EMB</title>
<path fill="none" stroke="black" d="M535.01,-222.72C626.04,-212.89 769,-197.47 860.94,-187.54"/>
<polygon fill="black" stroke="black" points="861.49,-191 871.06,-186.45 860.74,-184.05 861.49,-191"/>
</g>
<!-- SEM -->
<g id="node17" class="node">
<title>SEM</title>
<path fill="none" stroke="black" d="M1029.37,-142C1029.37,-142 871.37,-142 871.37,-142 865.37,-142 859.37,-136 859.37,-130 859.37,-130 859.37,-116 859.37,-116 859.37,-110 865.37,-104 871.37,-104 871.37,-104 1029.37,-104 1029.37,-104 1035.37,-104 1041.37,-110 1041.37,-116 1041.37,-116 1041.37,-130 1041.37,-130 1041.37,-136 1035.37,-142 1029.37,-142"/>
<text text-anchor="middle" x="950.37" y="-126.8" font-family="Helvetica,sans-Serif" font-size="14.00">sentence_encoder.ms</text>
<text text-anchor="middle" x="950.37" y="-111.8" font-family="Helvetica,sans-Serif" font-size="14.00">sentence_tokenizer.json</text>
</g>
<!-- SH&#45;&gt;SEM -->
<g id="edge7" class="edge">
<title>SH&#45;&gt;SEM</title>
<path fill="none" stroke="black" d="M506.86,-213.98C516.27,-211.01 525.91,-207.94 534.99,-205 551.04,-199.81 554.66,-197.21 570.99,-193 664.17,-168.98 772.27,-149.83 849.01,-137.67"/>
<polygon fill="black" stroke="black" points="849.82,-141.09 859.16,-136.08 848.74,-134.17 849.82,-141.09"/>
</g>
<!-- LJNI -->
<g id="node13" class="node">
<title>LJNI</title>
<path fill="none" stroke="black" d="M1039.37,-443C1039.37,-443 861.37,-443 861.37,-443 855.37,-443 849.37,-437 849.37,-431 849.37,-431 849.37,-419 849.37,-419 849.37,-413 855.37,-407 861.37,-407 861.37,-407 1039.37,-407 1039.37,-407 1045.37,-407 1051.37,-413 1051.37,-419 1051.37,-419 1051.37,-431 1051.37,-431 1051.37,-437 1045.37,-443 1039.37,-443"/>
<text text-anchor="middle" x="950.37" y="-421.3" font-family="Helvetica,sans-Serif" font-size="14.00">LLamaAndroid JNI wrapper</text>
</g>
<!-- LH&#45;&gt;LJNI -->
<g id="edge12" class="edge">
<title>LH&#45;&gt;LJNI</title>
<path fill="none" stroke="black" d="M502.61,-185.49C514.68,-189.51 526.43,-195.65 534.99,-205 585.38,-260.04 516.43,-318.09 570.99,-369 608.92,-404.39 741.46,-417.44 839.02,-422.24"/>
<polygon fill="black" stroke="black" points="839.09,-425.74 849.24,-422.72 839.42,-418.75 839.09,-425.74"/>
</g>
<!-- GGUF -->
<g id="node22" class="node">
<title>GGUF</title>
<ellipse fill="none" stroke="black" cx="676.93" cy="-72" rx="105.88" ry="18"/>
<text text-anchor="middle" x="676.93" y="-68.3" font-family="Helvetica,sans-Serif" font-size="14.00">.gguf en storage app</text>
</g>
<!-- LH&#45;&gt;GGUF -->
<g id="edge14" class="edge">
<title>LH&#45;&gt;GGUF</title>
<path fill="none" stroke="black" d="M502.77,-167.48C514.16,-163.58 525.57,-158.25 534.99,-151 558.74,-132.73 546.38,-111.09 570.99,-94 574.75,-91.39 578.75,-89.08 582.92,-87.03"/>
<polygon fill="black" stroke="black" points="584.49,-90.16 592.27,-82.97 581.7,-83.75 584.49,-90.16"/>
</g>
<!-- GROQ -->
<g id="node21" class="node">
<title>GROQ</title>
<ellipse fill="none" stroke="black" cx="676.93" cy="-18" rx="50.09" ry="18"/>
<text text-anchor="middle" x="676.93" y="-14.3" font-family="Helvetica,sans-Serif" font-size="14.00">Groq API</text>
</g>
<!-- GH&#45;&gt;GROQ -->
<g id="edge16" class="edge">
<title>GH&#45;&gt;GROQ</title>
<path fill="none" stroke="black" d="M471.99,-105.84C495.6,-88.02 534.02,-61.21 570.99,-45 586.97,-37.99 605.15,-32.52 621.83,-28.39"/>
<polygon fill="black" stroke="black" points="623.06,-31.69 631.99,-25.99 621.45,-24.88 623.06,-31.69"/>
</g>
<!-- PC -->
<g id="node7" class="node">
<title>PC</title>
<path fill="none" stroke="black" d="M749.43,-360C749.43,-360 604.43,-360 604.43,-360 598.43,-360 592.43,-354 592.43,-348 592.43,-348 592.43,-336 592.43,-336 592.43,-330 598.43,-324 604.43,-324 604.43,-324 749.43,-324 749.43,-324 755.43,-324 761.43,-330 761.43,-336 761.43,-336 761.43,-348 761.43,-348 761.43,-354 755.43,-360 749.43,-360"/>
<text text-anchor="middle" x="676.93" y="-338.3" font-family="Helvetica,sans-Serif" font-size="14.00">PlantDiseaseClassifier</text>
</g>
<!-- CH&#45;&gt;PC -->
<g id="edge18" class="edge">
<title>CH&#45;&gt;PC</title>
<path fill="none" stroke="black" d="M506.26,-342C529.21,-342 556.27,-342 581.95,-342"/>
<polygon fill="black" stroke="black" points="582.09,-345.5 592.09,-342 582.09,-338.5 582.09,-345.5"/>
</g>
<!-- PC&#45;&gt;MSK -->
<g id="edge20" class="edge">
<title>PC&#45;&gt;MSK</title>
<path fill="none" stroke="black" d="M694.01,-360.06C717.23,-384.92 762.67,-429.2 810.87,-452 815.03,-453.97 819.33,-455.79 823.72,-457.49"/>
<polygon fill="black" stroke="black" points="822.87,-460.9 833.46,-460.98 825.23,-454.31 822.87,-460.9"/>
</g>
<!-- PDM -->
<g id="node19" class="node">
<title>PDM</title>
<path fill="none" stroke="black" d="M1033.87,-360C1033.87,-360 866.87,-360 866.87,-360 860.87,-360 854.87,-354 854.87,-348 854.87,-348 854.87,-334 854.87,-334 854.87,-328 860.87,-322 866.87,-322 866.87,-322 1033.87,-322 1033.87,-322 1039.87,-322 1045.87,-328 1045.87,-334 1045.87,-334 1045.87,-348 1045.87,-348 1045.87,-354 1039.87,-360 1033.87,-360"/>
<text text-anchor="middle" x="950.37" y="-344.8" font-family="Helvetica,sans-Serif" font-size="14.00">plant_disease_model.ms</text>
<text text-anchor="middle" x="950.37" y="-329.8" font-family="Helvetica,sans-Serif" font-size="14.00">plant_disease_labels.json</text>
</g>
<!-- PC&#45;&gt;PDM -->
<g id="edge19" class="edge">
<title>PC&#45;&gt;PDM</title>
<path fill="none" stroke="black" d="M761.59,-341.69C787.81,-341.6 817.09,-341.49 844.58,-341.39"/>
<polygon fill="black" stroke="black" points="844.63,-344.89 854.61,-341.35 844.6,-337.89 844.63,-344.89"/>
</g>
<!-- MSC -->
<g id="node9" class="node">
<title>MSC</title>
<path fill="none" stroke="black" d="M1297.87,-497C1297.87,-497 1134.87,-497 1134.87,-497 1128.87,-497 1122.87,-491 1122.87,-485 1122.87,-485 1122.87,-473 1122.87,-473 1122.87,-467 1128.87,-461 1134.87,-461 1134.87,-461 1297.87,-461 1297.87,-461 1303.87,-461 1309.87,-467 1309.87,-473 1309.87,-473 1309.87,-485 1309.87,-485 1309.87,-491 1303.87,-497 1297.87,-497"/>
<text text-anchor="middle" x="1216.37" y="-475.3" font-family="Helvetica,sans-Serif" font-size="14.00">MindSporeNetnative.cpp</text>
</g>
<!-- MSK&#45;&gt;MSC -->
<g id="edge21" class="edge">
<title>MSK&#45;&gt;MSC</title>
<path fill="none" stroke="black" d="M1082.21,-479C1092.32,-479 1102.43,-479 1112.32,-479"/>
<polygon fill="black" stroke="black" points="1112.53,-482.5 1122.53,-479 1112.52,-475.5 1112.53,-482.5"/>
</g>
<!-- MSL -->
<g id="node10" class="node">
<title>MSL</title>
<path fill="none" stroke="black" d="M1545.87,-497C1545.87,-497 1362.87,-497 1362.87,-497 1356.87,-497 1350.87,-491 1350.87,-485 1350.87,-485 1350.87,-473 1350.87,-473 1350.87,-467 1356.87,-461 1362.87,-461 1362.87,-461 1545.87,-461 1545.87,-461 1551.87,-461 1557.87,-467 1557.87,-473 1557.87,-473 1557.87,-485 1557.87,-485 1557.87,-491 1551.87,-497 1545.87,-497"/>
<text text-anchor="middle" x="1454.37" y="-475.3" font-family="Helvetica,sans-Serif" font-size="14.00">MindSpore Lite runtime libs</text>
</g>
<!-- MSC&#45;&gt;MSL -->
<g id="edge22" class="edge">
<title>MSC&#45;&gt;MSL</title>
<path fill="none" stroke="black" d="M1309.97,-479C1319.94,-479 1330.17,-479 1340.36,-479"/>
<polygon fill="black" stroke="black" points="1340.51,-482.5 1350.51,-479 1340.51,-475.5 1340.51,-482.5"/>
</g>
<!-- TSO -->
<g id="node12" class="node">
<title>TSO</title>
<path fill="none" stroke="black" d="M1302.87,-551C1302.87,-551 1129.87,-551 1129.87,-551 1123.87,-551 1117.87,-545 1117.87,-539 1117.87,-539 1117.87,-527 1117.87,-527 1117.87,-521 1123.87,-515 1129.87,-515 1129.87,-515 1302.87,-515 1302.87,-515 1308.87,-515 1314.87,-521 1314.87,-527 1314.87,-527 1314.87,-539 1314.87,-539 1314.87,-545 1308.87,-551 1302.87,-551"/>
<text text-anchor="middle" x="1216.37" y="-529.3" font-family="Helvetica,sans-Serif" font-size="14.00">libhf_tokenizer_android.so</text>
</g>
<!-- TOK&#45;&gt;TSO -->
<g id="edge9" class="edge">
<title>TOK&#45;&gt;TSO</title>
<path fill="none" stroke="black" d="M1045.94,-533C1065.81,-533 1086.91,-533 1107.24,-533"/>
<polygon fill="black" stroke="black" points="1107.46,-536.5 1117.46,-533 1107.46,-529.5 1107.46,-536.5"/>
</g>
<!-- LSO -->
<g id="node14" class="node">
<title>LSO</title>
<path fill="none" stroke="black" d="M1260.87,-443C1260.87,-443 1171.87,-443 1171.87,-443 1165.87,-443 1159.87,-437 1159.87,-431 1159.87,-431 1159.87,-419 1159.87,-419 1159.87,-413 1165.87,-407 1171.87,-407 1171.87,-407 1260.87,-407 1260.87,-407 1266.87,-407 1272.87,-413 1272.87,-419 1272.87,-419 1272.87,-431 1272.87,-431 1272.87,-437 1266.87,-443 1260.87,-443"/>
<text text-anchor="middle" x="1216.37" y="-421.3" font-family="Helvetica,sans-Serif" font-size="14.00">llama.cpp libs</text>
</g>
<!-- LJNI&#45;&gt;LSO -->
<g id="edge13" class="edge">
<title>LJNI&#45;&gt;LSO</title>
<path fill="none" stroke="black" d="M1051.56,-425C1084.31,-425 1119.84,-425 1149.41,-425"/>
<polygon fill="black" stroke="black" points="1149.61,-428.5 1159.61,-425 1149.61,-421.5 1149.61,-428.5"/>
</g>
<!-- U -->
<g id="node20" class="node">
<title>U</title>
<ellipse fill="none" stroke="black" cx="45.5" cy="-232" rx="45.49" ry="18"/>
<text text-anchor="middle" x="45.5" y="-228.3" font-family="Helvetica,sans-Serif" font-size="14.00">Usuario</text>
</g>
<!-- U&#45;&gt;MA -->
<g id="edge1" class="edge">
<title>U&#45;&gt;MA</title>
<path fill="none" stroke="black" d="M91.08,-232C99.11,-232 107.78,-232 116.73,-232"/>
<polygon fill="black" stroke="black" points="116.92,-235.5 126.92,-232 116.92,-228.5 116.92,-235.5"/>
</g>
</g>
</svg>
